<svg width="28" height="28" viewBox="0 0 28 28" fill="none" xmlns="http://www.w3.org/2000/svg">
<rect width="28" height="28" rx="14" fill="#B7463E"/>
<path d="M17.7121 10.2877C17.3705 9.94599 16.8164 9.94599 16.4747 10.2877L13.9999 12.7626L11.525 10.2877C11.1832 9.94594 10.6293 9.94594 10.2875 10.2877C9.94583 10.6294 9.94583 11.1834 10.2875 11.5251L12.7624 14L10.2875 16.4749C9.94583 16.8166 9.94583 17.3706 10.2875 17.7123C10.6293 18.054 11.1833 18.054 11.525 17.7123L13.9999 15.2374L16.4747 17.7123C16.8164 18.054 17.3705 18.054 17.7121 17.7123C18.0538 17.3706 18.0538 16.8165 17.7121 16.4748L15.2373 14L17.7121 11.5251C18.0539 11.1834 18.0539 10.6294 17.7121 10.2877Z" fill="white"/>
</svg>
