<svg width="9" height="9" viewBox="0 0 9 9" fill="none" xmlns="http://www.w3.org/2000/svg">
<path d="M6.25234 0.897824C6.37309 0.773208 6.51744 0.673862 6.67696 0.60557C6.83648 0.537278 7.008 0.501405 7.18152 0.50004C7.35504 0.498676 7.5271 0.531847 7.68767 0.597621C7.84825 0.663396 7.99414 0.76046 8.11684 0.883162C8.23954 1.00586 8.3366 1.15175 8.40238 1.31233C8.46815 1.4729 8.50132 1.64496 8.49996 1.81848C8.49859 1.992 8.46272 2.16352 8.39443 2.32304C8.32614 2.48256 8.22679 2.62691 8.10218 2.74766L7.58981 3.26003L5.73997 1.41019L6.25234 0.897824ZM5.3873 1.76286L1.33263 5.81753C1.18624 5.96392 1.07977 6.14558 1.02388 6.3452L0.509184 8.1834C0.497292 8.22601 0.496943 8.27102 0.508171 8.31381C0.5194 8.3566 0.541803 8.39563 0.573085 8.42691C0.604367 8.4582 0.643404 8.4806 0.686194 8.49183C0.728985 8.50306 0.773992 8.50271 0.816603 8.49082L2.65447 7.97612C2.85422 7.92064 3.03615 7.81425 3.18247 7.66737L7.23748 3.61303L5.3873 1.76286Z" fill="black"/>
</svg>
