<svg width="14" height="20" viewBox="0 0 14 20" fill="none" xmlns="http://www.w3.org/2000/svg">
<path d="M6.82102 1.12451C6.1969 1.12451 5.59834 1.37244 5.15702 1.81376C4.7157 2.25508 4.46777 2.85364 4.46777 3.47775V9.75307C4.46777 10.3772 4.7157 10.9757 5.15702 11.4171C5.59834 11.8584 6.1969 12.1063 6.82102 12.1063C7.44513 12.1063 8.04369 11.8584 8.48501 11.4171C8.92633 10.9757 9.17426 10.3772 9.17426 9.75307V3.47775C9.17426 2.85364 8.92633 2.25508 8.48501 1.81376C8.04369 1.37244 7.44513 1.12451 6.82102 1.12451V1.12451Z" stroke="white" stroke-width="1.56883" stroke-linecap="round" stroke-linejoin="round"/>
<path d="M12.3138 8.1842V9.75303C12.3138 11.2093 11.7353 12.6059 10.7056 13.6357C9.67584 14.6654 8.27921 15.2439 6.82293 15.2439C5.36665 15.2439 3.97002 14.6654 2.94028 13.6357C1.91053 12.6059 1.33203 11.2093 1.33203 9.75303V8.1842" stroke="white" stroke-width="1.56883" stroke-linecap="round" stroke-linejoin="round"/>
<path d="M6.82129 15.244V18.3822" stroke="white" stroke-width="1.56883" stroke-linecap="round" stroke-linejoin="round"/>
<path d="M3.68555 18.3816H9.96188" stroke="white" stroke-width="1.56883" stroke-linecap="round" stroke-linejoin="round"/>
</svg>
